<svg xmlns="http://www.w3.org/2000/svg" viewBox="0 0 21 21" height="21" width="21"><title>city-gate_15.svg</title><rect fill="none" x="0" y="0" width="21" height="21"></rect><rect x="0" y="0" width="21" height="21" rx="10.5" ry="10.5" fill="#423e3e"></rect><path fill="#ffffff" transform="translate(3 3)" d="M0,1.07V4.29H15V1.07H12.86V3.21H10.71V1.07H8.57V3.21H6.43V1.07H4.29V3.21H2.14V1.07ZM0,5.36v8.57H2.68c0-3.22,1.06-7,4.82-7s4.82,3.75,4.82,7H15V5.36ZM7.5,8.57c-2.14,0-3.21,2.14-3.21,5.36h6.42C10.71,10.71,9.64,8.57,7.5,8.57Z"></path></svg>