<svg xmlns="http://www.w3.org/2000/svg" viewBox="0 0 21 21" height="21" width="21"><title>fort_15.svg</title><rect fill="none" x="0" y="0" width="21" height="21"></rect><rect x="0" y="0" width="21" height="21" rx="10.5" ry="10.5" fill="#423e3e"></rect><path fill="#ffffff" transform="translate(3 3)" d="M3,2.14,2.14,3.21v.37H5.36V3.21L4.49,2.14Zm7.56,0L9.64,3.21v.37h3.22V3.21l-.81-1.07ZM2.14,4.29V7.5H12.86V4.29H9.64V5.36H5.36V4.29ZM3.75,5.36a.52.52,0,0,1,.54.53v.54H3.21V5.89A.52.52,0,0,1,3.75,5.36Zm7.5,0a.52.52,0,0,1,.54.53v.54H10.71V5.89A.52.52,0,0,1,11.25,5.36ZM1.07,8.57,0,12.86H15L13.93,8.57Z"></path></svg>