<svg xmlns="http://www.w3.org/2000/svg" viewBox="0 0 21 21" height="21" width="21"><title>lift-gate_11.svg</title><rect fill="none" x="0" y="0" width="21" height="21"></rect><rect x="0" y="0" width="21" height="21" rx="10.5" ry="10.5" fill="#423e3e"></rect><path fill="#ffffff" transform="translate(3 3)" d="M.75,3A.73.73,0,0,0,0,3.75v5a1.06,1.06,0,0,0,0,.56V13.5H1.5V10.08L10.88,6.7a1.14,1.14,0,1,0-.57-2.2l-.18,0L1.5,7.64V3.75A.73.73,0,0,0,.75,3Zm13.5,0a.73.73,0,0,0-.75.75V13.5H15V3.75A.73.73,0,0,0,14.25,3Z"></path></svg>